<svg width="42" height="33" viewBox="0 0 42 33" fill="none" xmlns="http://www.w3.org/2000/svg">
<path d="M1.78042 13.2623L27.229 17.1866C27.0331 16.7927 26.9131 16.355 26.9131 15.8857C26.9131 14.2601 28.23 12.9433 29.8561 12.9433C31.4819 12.9433 32.7991 14.2601 32.7991 15.8857C32.7991 16.6754 32.4842 17.3892 31.9772 17.9186L40.277 19.1981C41.2405 19.3468 41.6676 18.76 41.2304 17.8874L37.3331 10.0894C36.8738 10.3852 36.3286 10.5617 35.7414 10.5617C34.1156 10.5617 32.7991 9.24418 32.7991 7.61872C32.7991 6.35369 33.6017 5.28341 34.7227 4.8687L32.804 1.03486C32.3686 0.162962 31.2868 -0.23633 30.3886 0.143917L26.1772 1.92592C26.7411 2.69864 27.0772 3.64672 27.0772 4.67594C27.0772 7.25895 24.9838 9.35218 22.3995 9.35218C20.0902 9.35218 18.1759 7.67641 17.7973 5.47452L1.6613 12.3043C0.764082 12.685 0.816814 13.1134 1.78042 13.2623ZM14.457 9.61066C14.9946 9.61066 15.43 10.0455 15.43 10.5831C15.43 11.1206 14.9946 11.5555 14.457 11.5555C13.9206 11.5555 13.4846 11.1208 13.4846 10.5831C13.4847 10.0455 13.9206 9.61066 14.457 9.61066Z" fill="#F8A511"/>
<path d="M3.9582 20.0967C5.83103 20.0967 7.34882 21.6152 7.34882 23.488C7.34882 25.3591 5.83091 26.8784 3.9582 26.8784C3.24878 26.8784 2.591 26.6597 2.04662 26.2868L2.38217 29.1888C2.49446 30.1589 3.37418 30.9901 4.34824 31.0466L25.1576 32.2749C25.1502 32.1918 25.1324 32.1124 25.1324 32.0282C25.1324 30.4161 26.4378 29.1112 28.049 29.1112C29.661 29.1112 30.966 30.4162 30.966 32.0282C30.966 32.2281 30.9449 32.424 30.9078 32.6132L37.4125 32.9969C38.3861 33.0535 39.3214 32.3237 39.5019 31.3646L41.5309 20.544L0.623169 13.9741L1.45962 21.2022C2.07953 20.5246 2.96773 20.0967 3.9582 20.0967ZM15.5348 20.1695C16.6668 20.1695 17.5838 21.0866 17.5838 22.2196C17.5838 23.352 16.666 24.2693 15.5348 24.2693C14.4017 24.2693 13.4846 23.352 13.4846 22.2196C13.4847 21.0866 14.4017 20.1695 15.5348 20.1695ZM11.4345 25.9069C11.9723 25.9069 12.4082 26.3414 12.4082 26.8789C12.4082 27.4166 11.9723 27.8512 11.4345 27.8512C10.8983 27.8512 10.4623 27.4166 10.4623 26.8789C10.4623 26.3414 10.8983 25.9069 11.4345 25.9069Z" fill="#F8A511"/>
</svg>
