<svg width="55" height="33" viewBox="0 0 55 33" fill="none" xmlns="http://www.w3.org/2000/svg">
<path fill-rule="evenodd" clip-rule="evenodd" d="M38.9849 0.328434C43.7262 1.4503 45.5399 4.27731 47.8137 8.16832H38.9849V0.328434ZM11.2766 8.49505C12.2049 8.49505 12.8787 8.95196 12.8787 10.0198C12.8787 10.9204 12.164 11.6509 11.2812 11.6535H1.60212C0.717199 11.6535 0 12.3852 0 13.2871C0 14.1895 0.717199 14.9208 1.60212 14.9208H16.0212C16.9145 14.9208 17.6296 15.6517 17.6296 16.5545C17.6296 17.4568 16.9124 18.1881 16.0275 18.1881H1.60212C0.717199 18.1881 0 18.9194 0 19.8218C0 20.7241 0.717199 21.4554 1.60212 21.4554H5.12679V26.3564C5.12679 27.2588 5.84399 27.9901 6.72891 27.9901H9.94942C10.5235 30.8737 13.0222 33 15.9678 33C18.9134 33 21.4121 30.8737 21.9862 27.9901H38.2535C38.8276 30.8737 41.3264 33 44.2719 33C47.2175 33 49.7162 30.8737 50.2903 27.9901H53.0836C53.9685 27.9901 54.6857 27.2588 54.6857 26.3564V16.5545C54.6857 11.7611 49.7275 11.4429 49.7229 11.4356H37.3828C36.4979 11.4356 35.7807 10.7043 35.7807 9.80198V0H6.72891C5.84399 0 5.12679 0.73132 5.12679 1.63366V5.22772H3.20424C2.31932 5.22772 1.60212 5.95904 1.60212 6.86139C1.60212 7.76373 2.31932 8.49505 3.20424 8.49505H11.2766ZM46.3488 24.6198C47.4958 25.7893 47.4958 27.6863 46.3488 28.8559C44.5039 30.7371 41.3347 29.3987 41.3347 26.7376C41.3347 24.077 44.5039 22.7386 46.3488 24.6198ZM18.0447 24.6198C19.1917 25.7893 19.1917 27.6863 18.0447 28.8559C16.1998 30.7371 13.0306 29.3987 13.0306 26.7376C13.0306 24.077 16.1998 22.7386 18.0447 24.6198Z" fill="#F8A511"/>
</svg>
