<svg width="32" height="33" viewBox="0 0 32 33" fill="none" xmlns="http://www.w3.org/2000/svg">
<path d="M2.93073 17.3585C2.93073 19.5313 3.47642 21.5766 4.43686 23.3652L14.5121 17.5485L4.28628 11.6444C3.42163 13.3629 2.93073 15.3025 2.93073 17.3585ZM6.12055 20.5014C5.80019 20.6528 5.46116 20.7499 5.11847 20.836C4.96627 20.8745 4.55573 20.9444 4.49457 20.7165C4.43449 20.4919 4.82324 20.339 4.9749 20.3009C5.22256 20.2383 5.45696 20.1735 5.68876 20.0641C5.87332 19.9764 6.2515 19.8994 6.41848 20.0692C6.59646 20.2495 6.24061 20.4445 6.12055 20.5014ZM10.4892 16.5587C10.9668 16.5587 11.3539 16.9452 11.3539 17.4228C11.3539 17.9004 10.9669 18.2869 10.4892 18.2869C10.0123 18.2869 9.62491 17.9004 9.62491 17.4228C9.62427 16.9452 10.0116 16.5587 10.4892 16.5587ZM8.10367 17.8567C8.10367 18.575 7.52195 19.1559 6.80421 19.1559C6.08679 19.1559 5.50442 18.5738 5.50442 17.8567C5.50442 17.1396 6.08625 16.5578 6.80421 16.5578C7.52195 16.5578 8.10367 17.139 8.10367 17.8567ZM5.50442 13.3727C5.98227 13.3727 6.3694 13.7592 6.3694 14.2372C6.3694 14.7147 5.98237 15.1012 5.50442 15.1012C5.02743 15.1012 4.64041 14.7147 4.64041 14.2372C4.64041 13.7601 5.02689 13.3727 5.50442 13.3727ZM3.89052 17.1195C3.14883 17.1195 3.98943 16.5822 4.3441 16.5822C5.08579 16.5822 4.24519 17.1195 3.89052 17.1195Z" fill="#F8A511"/>
<path d="M15.0847 4.00367V1.71583C9.69805 1.9102 4.99788 4.83705 2.33078 9.15063L4.31304 10.2951C6.58212 6.66431 10.5429 4.19578 15.0847 4.00367Z" fill="#F8A511"/>
<path d="M28.1446 8.57991L30.1269 7.43545C27.4603 3.12122 22.7596 0.194375 17.373 0V2.28785C21.9146 2.47996 25.8752 4.94848 28.1446 8.57991Z" fill="#F8A511"/>
<path d="M28.8455 25.7803L26.8627 24.6353C24.5737 28.149 20.6802 30.5246 16.2285 30.7123V33C21.5253 32.809 26.1566 29.9755 28.8455 25.7803Z" fill="#F8A511"/>
<path d="M27.5642 11.2916C28.4965 13.1135 29.026 15.1743 29.026 17.3585C29.026 19.633 28.4534 21.7755 27.4475 23.6523L29.4304 24.7973C30.6307 22.5832 31.3132 20.0485 31.3132 17.3585C31.3132 14.7585 30.673 12.3068 29.5465 10.1463L27.5642 11.2916Z" fill="#F8A511"/>
<path d="M3.86604 23.6522C2.86062 21.7743 2.28785 19.6318 2.28785 17.3584C2.28785 15.1742 2.81758 13.1134 3.74987 11.2907L1.76696 10.1458C0.640727 12.3062 0 14.758 0 17.3574C0 20.0478 0.682579 22.582 1.88313 24.7961L3.86604 23.6522Z" fill="#F8A511"/>
<path d="M15.0847 33V30.7123C10.6334 30.524 6.74005 28.149 4.45058 24.6353L2.46832 25.7803C5.15679 29.9755 9.78846 32.809 15.0847 33Z" fill="#F8A511"/>
<path d="M15.0847 4.6471C10.7596 4.83813 6.99696 7.18822 4.84567 10.6462L15.0847 16.5578V4.6471ZM8.77611 11.0002C8.05901 11.0002 7.47718 10.4185 7.47718 9.70129C7.47718 8.98355 8.05891 8.40182 8.77611 8.40182C9.49385 8.40182 10.0756 8.98355 10.0756 9.70129C10.0761 10.4191 9.49385 11.0002 8.77611 11.0002ZM12.6527 13.3727C12.1757 13.3727 11.7886 12.9863 11.7886 12.5087C11.7886 12.0312 12.1756 11.6444 12.6527 11.6444C13.1302 11.6444 13.5176 12.0312 13.5176 12.5087C13.5171 12.9863 13.1302 13.3727 12.6527 13.3727ZM12.6183 10.1561C12.4539 9.9524 12.2673 9.84713 12.0174 9.77906C11.7669 9.71057 11.7172 9.44446 11.8782 9.26152C12.0675 9.04708 12.3907 8.97837 12.6596 9.05237C13.0482 9.15851 13.3779 9.36237 13.6312 9.67627C13.9787 10.1053 12.925 10.5353 12.6183 10.1561ZM13.0538 8.104C12.5768 8.104 12.1894 7.71752 12.1894 7.23956C12.1894 6.76204 12.5768 6.37555 13.0538 6.37555C13.5313 6.37555 13.9186 6.76204 13.9186 7.23956C13.9186 7.71741 13.5313 8.104 13.0538 8.104Z" fill="#F8A511"/>
<path d="M28.3825 17.3585C28.3825 15.3025 27.8926 13.3629 27.0269 11.6443L16.8011 17.5484L26.8766 23.3662C27.8368 21.5766 28.3825 19.5312 28.3825 17.3585ZM26.6549 13.6707C27.3944 13.6707 26.5203 14.1689 26.1913 14.1689C25.4529 14.1684 26.3264 13.6707 26.6549 13.6707ZM21.2594 18.3695C20.7824 18.3695 20.3953 17.9829 20.3953 17.5049C20.3953 17.0278 20.7824 16.6408 21.2594 16.6408C21.7376 16.6408 22.124 17.0278 22.124 17.5049C22.1239 17.9829 21.7375 18.3695 21.2594 18.3695ZM23.636 16.6279C24.1761 16.6279 23.1462 17.0736 22.9183 17.0736C22.3787 17.0736 23.4086 16.6279 23.636 16.6279ZM23.1383 19.4698C22.391 19.4698 23.1227 18.8079 23.5589 18.8079C24.3068 18.8073 23.574 19.4698 23.1383 19.4698ZM25.416 21.6369C24.938 21.6369 24.5514 21.2504 24.5514 20.7723C24.5514 20.2953 24.939 19.9088 25.416 19.9088C25.8937 19.9088 26.2807 20.2953 26.2807 20.7723C26.2806 21.2504 25.8937 21.6369 25.416 21.6369ZM25.8512 18.2209C25.1341 18.2209 24.5526 17.6394 24.5526 16.9223C24.5526 16.2046 25.1341 15.6228 25.8512 15.6228C26.5688 15.6228 27.1509 16.2046 27.1509 16.9223C27.1498 17.6399 26.5683 18.2209 25.8512 18.2209Z" fill="#F8A511"/>
<path d="M15.0847 30.0699V18.5393L5.02365 24.3481C7.20158 27.6536 10.8768 29.8833 15.0847 30.0699ZM13.2607 29.1483C12.5162 29.1483 13.3266 28.5748 13.7047 28.5748C14.4492 28.5747 13.6388 29.1483 13.2607 29.1483ZM13.0538 21.6369C13.5313 21.6369 13.9186 22.0235 13.9186 22.501C13.9186 22.9787 13.5313 23.3652 13.0538 23.3652C12.5768 23.3652 12.1894 22.9787 12.1894 22.501C12.1894 22.0235 12.5768 21.6369 13.0538 21.6369ZM10.8304 23.6589C11.5787 23.6589 10.8648 24.3415 10.4155 24.3415C9.66784 24.3415 10.3812 23.6589 10.8304 23.6589ZM11.3533 24.7973C12.0712 24.7973 12.6527 25.3787 12.6527 26.0964C12.6527 26.8141 12.0712 27.3956 11.3533 27.3956C10.636 27.3956 10.0543 26.8135 10.0543 26.0964C10.0543 25.3786 10.636 24.7973 11.3533 24.7973ZM7.66832 23.8007C8.14584 23.8007 8.53319 24.1872 8.53319 24.6648C8.53319 25.1424 8.14584 25.529 7.66832 25.529C7.19133 25.529 6.8042 25.1424 6.8042 24.6648C6.8042 24.1877 7.19123 23.8007 7.66832 23.8007Z" fill="#F8A511"/>
<path d="M26.2895 24.3481L16.2285 18.5393V30.0699C20.4372 29.8833 24.1125 27.6536 26.2895 24.3481ZM18.0874 28.2596C17.6103 28.2596 17.2233 27.8725 17.2233 27.3955C17.2233 26.9173 17.6103 26.5308 18.0874 26.5308C18.5649 26.5308 18.9526 26.9173 18.9526 27.3955C18.9526 27.8725 18.5649 28.2596 18.0874 28.2596ZM18.6721 24.6654C17.955 24.6654 17.3724 24.0833 17.3724 23.3662C17.3724 22.649 17.9538 22.067 18.6721 22.067C19.3899 22.067 19.9714 22.649 19.9714 23.3662C19.9714 24.0834 19.39 24.6654 18.6721 24.6654ZM19.9865 26.5795C19.4487 26.5795 20.4807 26.1394 20.7058 26.1394C21.2426 26.1394 20.2116 26.5795 19.9865 26.5795ZM23.2522 25.6608C22.7746 25.6608 22.3876 25.2743 22.3876 24.7973C22.3876 24.3191 22.7753 23.9325 23.2522 23.9325C23.7298 23.9325 24.1169 24.3191 24.1169 24.7973C24.1169 25.2743 23.7298 25.6608 23.2522 25.6608Z" fill="#F8A511"/>
<path d="M17.3725 2.93127V14.842L27.6117 8.93037C25.4608 5.47238 21.6984 3.1223 17.3725 2.93127ZM20.6863 4.6471C21.1645 4.6471 21.5509 5.03358 21.5509 5.51122C21.5509 5.98885 21.1645 6.37555 20.6863 6.37555C20.2093 6.37555 19.8222 5.98874 19.8222 5.51122C19.8217 5.03369 20.2087 4.6471 20.6863 4.6471ZM18.833 3.83832C19.581 3.83832 18.8989 4.55444 18.4276 4.55444C17.6796 4.55444 18.3616 3.83832 18.833 3.83832ZM19.387 11.9018C18.6699 11.9018 18.0874 11.32 18.0874 10.6028C18.0874 9.88563 18.6689 9.30391 19.387 9.30391C20.1048 9.30391 20.6863 9.88563 20.6863 10.6028C20.6863 11.32 20.1049 11.9018 19.387 11.9018ZM20.7187 8.04618C20.5008 8.21855 20.1596 8.26537 19.9234 8.10346C19.6793 7.93594 19.3731 7.89452 19.0884 7.83865C18.8492 7.79119 18.6253 7.6035 18.7415 7.33707C18.852 7.0852 19.1949 6.9371 19.4586 6.98909C19.9171 7.08013 20.3757 7.17009 20.7678 7.43933C21.0013 7.59908 20.9063 7.89819 20.7187 8.04618ZM21.4325 10.0692C20.6851 10.0692 21.3493 9.33422 21.8336 9.33422C22.581 9.33357 21.9167 10.0692 21.4325 10.0692ZM23.2522 8.86802C22.7746 8.86802 22.3876 8.48153 22.3876 8.0039C22.3876 7.52627 22.7752 7.13957 23.2522 7.13957C23.7297 7.13957 24.1169 7.52638 24.1169 8.0039C24.1169 8.48143 23.7297 8.86802 23.2522 8.86802ZM24.7765 8.49221C24.2387 8.49221 25.2708 8.05147 25.4959 8.05147C26.0338 8.05093 25.0016 8.49221 24.7765 8.49221Z" fill="#F8A511"/>
</svg>
